<svg class="theme-icon" width="20" height="20" viewBox="0 0 20 20" fill="none" xmlns="http://www.w3.org/2000/svg">
<path d="M7.79297 20V11.3333H5V7.33333H7.79297V4.54167C7.79297 3.77778 7.89714 3.11111 8.10547 2.54167C8.32682 1.97222 8.6263 1.5 9.00391 1.125C9.39453 0.75 9.85677 0.472222 10.3906 0.291667C10.9245 0.0972222 11.5104 0 12.1484 0C12.7474 0 13.2878 0.0208333 13.7695 0.0625C14.2513 0.0902778 14.5638 0.118056 14.707 0.145833V3.3125H12.9492C12.2591 3.3125 11.8034 3.47222 11.582 3.79167C11.3607 4.11111 11.25 4.52778 11.25 5.04167V7.33333H15L13.75 11.3333H11.25V20H7.79297Z" fill="#142C73"></path>
</svg>