<svg class="theme-icon" width="48" height="48" viewBox="0 0 48 48" fill="none" xmlns="http://www.w3.org/2000/svg">
<path d="M24 30.5C22.067 30.5 20.5 28.933 20.5 27H17.5C17.5 30.5899 20.4101 33.5 24 33.5C27.5899 33.5 30.5 30.5899 30.5 27H27.5C27.5 28.933 25.933 30.5 24 30.5Z" fill="#142C73"></path>
<path d="M21 19C21 20.1046 20.1046 21 19 21C17.8954 21 17 20.1046 17 19C17 17.8954 17.8954 17 19 17C20.1046 17 21 17.8954 21 19Z" fill="#142C73"></path>
<path d="M29 21C30.1046 21 31 20.1046 31 19C31 17.8954 30.1046 17 29 17C27.8954 17 27 17.8954 27 19C27 20.1046 27.8954 21 29 21Z" fill="#142C73"></path>
<path fill-rule="evenodd" clip-rule="evenodd" d="M48 24C48 37.2548 37.2548 48 24 48C10.7452 48 0 37.2548 0 24C0 10.7452 10.7452 0 24 0C37.2548 0 48 10.7452 48 24ZM45 24C45 35.598 35.598 45 24 45C12.402 45 3 35.598 3 24C3 12.402 12.402 3 24 3C35.598 3 45 12.402 45 24Z" fill="#142C73"></path>
</svg>