<svg class="theme-icon" width="48" height="48" viewBox="0 0 48 48" fill="none" xmlns="http://www.w3.org/2000/svg">
<path d="M25 6H28V9H25V6Z" fill="#142C73"></path>
<path d="M35 6H29V9H35V6Z" fill="#142C73"></path>
<path fill-rule="evenodd" clip-rule="evenodd" d="M24 38C30.6274 38 36 32.6274 36 26C36 19.3726 30.6274 14 24 14C17.3726 14 12 19.3726 12 26C12 32.6274 17.3726 38 24 38ZM24 35C28.7911 35 32.7078 31.2563 32.9844 26.5346C31.716 26.1861 30.3803 26 29.0012 26C24.1743 26 19.8799 28.2799 17.1362 31.8216C18.787 33.7661 21.2494 35 24 35ZM29.0012 23C30.2361 23 31.442 23.1244 32.607 23.3612C31.4792 19.6783 28.0524 17 24 17C19.0294 17 15 21.0294 15 26C15 27.0736 15.188 28.1033 15.5329 29.058C18.8303 25.3419 23.6423 23 29.0012 23Z" fill="#142C73"></path>
<path fill-rule="evenodd" clip-rule="evenodd" d="M7 48V0H41V48H7ZM10 3H38V45H10V3Z" fill="#142C73"></path>
</svg>