<svg class="theme-icon" width="48" height="48" viewBox="0 0 48 48" fill="none" xmlns="http://www.w3.org/2000/svg">
<path fill-rule="evenodd" clip-rule="evenodd" d="M1 7.42431V22.5757C3.21798 24.685 6.35225 26 9.82644 26C9.88439 26 9.94224 25.9996 10 25.9989C11.0365 25.9858 12.0416 25.8557 13 25.6225V44H22V15C22 8.92487 16.5497 4 9.82644 4C6.35225 4 3.21798 5.31505 1 7.42431ZM19 41H16V21.8049L12.2907 22.7075C11.5105 22.8974 10.6847 23 9.82644 23C7.58485 23 5.56542 22.3004 4 21.1737V14H8V11H4V8.82626C5.56542 7.69957 7.58485 7 9.82644 7C15.1862 7 19 10.8606 19 15V41Z" fill="#142C73"></path>
<path fill-rule="evenodd" clip-rule="evenodd" d="M38.1736 4C41.6477 4 44.782 5.31505 47 7.42431V22.5757C44.782 24.685 41.6477 26 38.1736 26C38.1156 26 38.0578 25.9996 38 25.9989C36.9635 25.9858 35.9584 25.8557 35 25.6225V44H26V15C26 8.92487 31.4503 4 38.1736 4ZM29 41H32V21.8049L35.7093 22.7075C36.4895 22.8974 37.3153 23 38.1736 23C40.4152 23 42.4346 22.3004 44 21.1737V14H40V11H44V8.82626C42.4346 7.69957 40.4152 7 38.1736 7C32.8138 7 29 10.8606 29 15V41Z" fill="#142C73"></path>
</svg>