<svg class="theme-icon" width="48" height="48" viewBox="0 0 48 48" fill="none" xmlns="http://www.w3.org/2000/svg">
<path d="M14 30H8V33H14V30Z" fill="#142C73"></path>
<path fill-rule="evenodd" clip-rule="evenodd" d="M20.001 0V0.00960749C14.6695 0.214741 9.93453 3.69014 6.82465 9.02507C3.95652 10.5298 2 13.5364 2 17V31C2 34.4636 3.95652 37.4702 6.82465 38.9749C9.93453 44.3099 14.6695 47.7853 20.001 47.9904V48H29.001V47.9904C38.4348 47.6274 46.001 37.0255 46.001 24C46.001 10.9745 38.4348 0.37258 29.001 0.00960748V0H20.001ZM14.9047 8.88884C13.7697 8.34147 12.5023 8.02531 11.1635 8.00146C13.6933 4.89474 16.8039 3.17352 20.0059 3.01245C18.0425 4.51042 16.3112 6.51158 14.9047 8.88884ZM20 17C20 14.513 18.9912 12.2616 17.3605 10.6326C17.733 9.9859 18.1307 9.37296 18.5507 8.79695C20.2788 6.42694 22.3209 4.74991 24.501 3.82863C26.6812 4.74991 28.7232 6.42694 30.4514 8.79695C33.2056 12.5742 35.001 17.9395 35.001 24C35.001 30.0605 33.2056 35.4258 30.4514 39.203C28.7232 41.5731 26.6812 43.2501 24.501 44.1714C22.3209 43.2501 20.2788 41.5731 18.5507 39.203C18.1307 38.627 17.733 38.0141 17.3605 37.3674C18.9912 35.7384 20 33.487 20 31V17ZM11.1635 39.9985C12.5023 39.9747 13.7697 39.6585 14.9047 39.1112C16.3112 41.4884 18.0425 43.4896 20.0059 44.9876C16.8039 44.8265 13.6933 43.1053 11.1635 39.9985ZM38.001 24C38.001 14.9731 34.3671 7.11013 28.9961 3.01245C32.4618 3.18678 35.8204 5.18877 38.4514 8.79695C41.2056 12.5742 43.001 17.9395 43.001 24C43.001 30.0605 41.2056 35.4258 38.4514 39.203C35.8204 42.8112 32.4618 44.8132 28.9961 44.9875C34.3671 40.8899 38.001 33.0269 38.001 24ZM17 31V17C17 13.6863 14.3137 11 11 11C7.68629 11 5 13.6863 5 17V31C5 34.3137 7.68629 37 11 37C14.3137 37 17 34.3137 17 31Z" fill="#142C73"></path>
</svg>