<svg class="theme-icon" width="48" height="48" viewBox="0 0 48 48" fill="none" xmlns="http://www.w3.org/2000/svg">
<path d="M14.6669 12.4546L12.5456 10.3333C17.7671 5.11177 26.2329 5.11177 31.4544 10.3333L29.333 12.4546C25.2831 8.40467 18.7169 8.40467 14.6669 12.4546Z" fill="#142C73"></path>
<path fill-rule="evenodd" clip-rule="evenodd" d="M39.3925 33.7724C41.6697 30.4147 43 26.3627 43 22C43 10.402 33.598 1 22 1C10.402 1 1 10.402 1 22C1 33.598 10.402 43 22 43C26.2779 43 30.257 41.7209 33.5758 39.5242L41.9004 47.8488L47.6847 42.0645L39.3925 33.7724ZM22 40C31.9411 40 40 31.9411 40 22C40 12.0589 31.9411 4 22 4C12.0589 4 4 12.0589 4 22C4 31.9411 12.0589 40 22 40ZM37.7852 36.4077L43.442 42.0645L41.9004 43.6062L36.2435 37.9493L37.7852 36.4077Z" fill="#142C73"></path>
</svg>