<svg class="theme-icon" width="48" height="48" viewBox="0 0 48 48" fill="none" xmlns="http://www.w3.org/2000/svg">
<path d="M28.29 14.6548L24.8716 11.1573L26.9801 9L33.9982 16.1803L26.9801 23.3606L24.8716 21.2033L28.2903 17.7056H14V14.6548H28.29Z" fill="#142c73"></path>
<path d="M19.71 30.2942L23.1284 26.7967L21.0199 24.6394L14.0018 31.8197L21.0199 39L23.1284 36.8427L19.7097 33.345H34V30.2942H19.71Z" fill="#142c73"></path>
<path fill-rule="evenodd" clip-rule="evenodd" d="M48 24C48 37.2548 37.2548 48 24 48C10.7452 48 0 37.2548 0 24C0 10.7452 10.7452 0 24 0C37.2548 0 48 10.7452 48 24ZM45 24C45 35.598 35.598 45 24 45C12.402 45 3 35.598 3 24C3 12.402 12.402 3 24 3C35.598 3 45 12.402 45 24Z" fill="#142c73"></path>
</svg>