<svg class="theme-icon" width="48" height="48" viewBox="0 0 48 48" fill="none" xmlns="http://www.w3.org/2000/svg">
<path d="M19 41V38H15V41H19Z" fill="#F51000"></path>
<path fill-rule="evenodd" clip-rule="evenodd" d="M27 44.0004V36.0004H37C39.2091 36.0004 41 34.2095 41 32.0004V15.7818C41 14.6479 40.5187 13.5672 39.6759 12.8087L33.6759 7.40866C33.3203 7.08862 32.9216 6.84339 32.5 6.67297V0H29.5V6.67298C29.0784 6.84339 28.6797 7.08862 28.3241 7.40866L22.3241 12.8087C21.4813 13.5672 21 14.6479 21 15.7818V18.6004L19.6759 17.4087C19.3203 17.0886 18.9216 16.8434 18.5 16.673L18.5 0H15.5L15.5 16.673C15.0784 16.8434 14.6797 17.0886 14.3241 17.4087L8.32414 22.8087C7.48129 23.5672 7 24.6479 7 25.7818V44.0004C7 46.1908 8.76063 47.97 10.9439 48H23.0561C25.2394 47.97 27 46.1908 27 44.0004ZM32.5 14.2908C33.9659 14.8841 35 16.3213 35 18C35 20.2091 33.2091 22 31 22C28.7909 22 27 20.2091 27 18C27 16.3213 28.0341 14.8841 29.5 14.2908V10.3865L24.331 15.0385C24.1203 15.2282 24 15.4983 24 15.7818V21.3004L25.6759 22.8087C26.5187 23.5672 27 24.6479 27 25.7818V33.0004H37C37.5523 33.0004 38 32.5527 38 32.0004V15.7818C38 15.4983 37.8797 15.2282 37.669 15.0385L32.5 10.3865V14.2908ZM15.5 24.2908V20.3865L10.331 25.0385C10.1203 25.2282 10 25.4984 10 25.7818V38H13V41H10V44.0004C10 44.5527 10.4477 45.0004 11 45.0004H23C23.5523 45.0004 24 44.5527 24 44.0004V41H21V38H24V25.7818C24 25.4983 23.8797 25.2282 23.669 25.0385L18.5 20.3865V24.2908C19.9659 24.8841 21 26.3213 21 28C21 30.2091 19.2091 32 17 32C14.7909 32 13 30.2091 13 28C13 26.3213 14.0341 24.8841 15.5 24.2908ZM32 18C32 18.5523 31.5523 19 31 19C30.4477 19 30 18.5523 30 18C30 17.4477 30.4477 17 31 17C31.5523 17 32 17.4477 32 18ZM18 28C18 28.5523 17.5523 29 17 29C16.4477 29 16 28.5523 16 28C16 27.4477 16.4477 27 17 27C17.5523 27 18 27.4477 18 28Z" fill="#F51000"></path>
</svg>