<svg class="theme-icon" width="20" height="20" viewBox="0 0 20 20" fill="none" xmlns="http://www.w3.org/2000/svg">
<path fill-rule="evenodd" clip-rule="evenodd" d="M10 0H15.2213L16.7702 13.0103C18.5769 13.1482 20 14.6579 20 16.5C20 18.433 18.433 20 16.5 20C15.1038 20 13.8985 19.1825 13.3368 18H6.66318C6.10145 19.1825 4.8962 20 3.5 20C1.567 20 0 18.433 0 16.5C0 14.567 1.567 13 3.5 13C5.26324 13 6.72194 14.3039 6.96456 16H13.0354C13.1935 14.8947 13.8681 13.956 14.8068 13.4361L13.4453 2H10V0ZM16.5 18C15.6716 18 15 17.3284 15 16.5C15 15.6716 15.6716 15 16.5 15C17.3284 15 18 15.6716 18 16.5C18 17.3284 17.3284 18 16.5 18ZM3.5 18C4.32843 18 5 17.3284 5 16.5C5 15.6716 4.32843 15 3.5 15C2.67157 15 2 15.6716 2 16.5C2 17.3284 2.67157 18 3.5 18Z" fill="#142C73"></path>
<path d="M9.70627 4.81072L8.03817 7.00011H12.0382L7.92276 12.4016L6.33189 11.1895L8 9.00011H4L8.11541 3.59863L9.70627 4.81072Z" fill="#142C73"></path>
</svg>