<svg class="theme-icon" width="48" height="48" viewBox="0 0 48 48" fill="none" xmlns="http://www.w3.org/2000/svg">
<path d="M12.001 7.50024H15V10.5002H6.5V2.00024L9.5 2.00024L9.5 5.63244C12.3981 3.34371 15.807 1.76376 19.4543 1.03828C24.0011 0.133868 28.714 0.598046 32.997 2.37212C37.28 4.1462 40.9407 7.15049 43.5163 11.0051C46.0918 14.8597 47.4665 19.3915 47.4665 24.0273C47.4665 28.6632 46.0918 33.195 43.5163 37.0496C40.9407 40.9042 37.28 43.9085 32.997 45.6826C28.714 47.4567 24.0011 47.9208 19.4543 47.0164C14.9075 46.112 10.7309 43.8796 7.45288 40.6015L9.5742 38.4802C12.4327 41.3387 16.0747 43.2854 20.0395 44.0741C24.0044 44.8627 28.1141 44.458 31.8489 42.9109C35.5837 41.3639 38.7759 38.7441 41.0219 35.3829C43.2678 32.0216 44.4665 28.0699 44.4665 24.0273C44.4665 19.9848 43.2678 16.0331 41.0219 12.6718C38.7759 9.31055 35.5837 6.69077 31.8489 5.14376C28.1141 3.59675 24.0044 3.19198 20.0395 3.98064C17.1245 4.56048 14.3839 5.7663 12.001 7.50024Z" fill="#142C73"></path>
</svg>