<svg class="theme-icon" width="48" height="48" viewBox="0 0 48 48" fill="none" xmlns="http://www.w3.org/2000/svg">
<g clip-path="url(#clip0_1892_5479)">
<path fill-rule="evenodd" clip-rule="evenodd" d="M18.2288 34.8602L32.2288 14.8602L29.7712 13.1398L15.7712 33.1398L18.2288 34.8602Z" fill="#142C73"></path>
<path fill-rule="evenodd" clip-rule="evenodd" d="M16.5 20C15.6716 20 15 19.3284 15 18.5C15 17.6716 15.6716 17 16.5 17C17.3284 17 18 17.6716 18 18.5C18 19.3284 17.3284 20 16.5 20ZM16.5 23C14.0147 23 12 20.9853 12 18.5C12 16.0147 14.0147 14 16.5 14C18.9853 14 21 16.0147 21 18.5C21 20.9853 18.9853 23 16.5 23Z" fill="#142C73"></path>
<path fill-rule="evenodd" clip-rule="evenodd" d="M31.5 31C30.6716 31 30 30.3284 30 29.5C30 28.6716 30.6716 28 31.5 28C32.3284 28 33 28.6716 33 29.5C33 30.3284 32.3284 31 31.5 31ZM31.5 34C29.0147 34 27 31.9853 27 29.5C27 27.0147 29.0147 25 31.5 25C33.9853 25 36 27.0147 36 29.5C36 31.9853 33.9853 34 31.5 34Z" fill="#142C73"></path>
<path fill-rule="evenodd" clip-rule="evenodd" d="M24 45C12.402 45 3 35.598 3 24C3 12.402 12.402 3 24 3C35.598 3 45 12.402 45 24C45 35.598 35.598 45 24 45ZM24 48C10.7452 48 0 37.2548 0 24C0 10.7452 10.7452 0 24 0C37.2548 0 48 10.7452 48 24C48 37.2548 37.2548 48 24 48Z" fill="#142C73"></path>
</g>
<defs>
<clipPath id="clip0_1892_5479">
<rect width="48" height="48" fill="white"></rect>
</clipPath>
</defs>
</svg>