<svg class="theme-icon" width="48" height="48" viewBox="0 0 48 48" fill="none" xmlns="http://www.w3.org/2000/svg">
<g clip-path="url(#clip0_1894_6244)">
<path d="M31.0609 16.18L22.5105 24.1542L18 19.9447L20.0609 17.7647L22.5105 20.0258L29 14L31.0609 16.18Z" fill="#142C73"></path>
<path fill-rule="evenodd" clip-rule="evenodd" d="M38.3197 27.002C38.3387 29.9818 36.539 32.6047 34 33.7958V48L24 41.5L14 48V33.7958C11.461 32.6047 9.66127 29.9818 9.68025 27.002C5.69643 24.7276 4.7927 19.2602 7.72911 15.7925C6.16468 11.5615 8.80262 6.69009 13.3585 5.9152C14.8736 1.64938 20.0277 -0.347728 24 1.99151C27.9723 -0.347735 33.1264 1.64938 34.6415 5.9152C39.1974 6.69009 41.8353 11.5615 40.2709 15.7925C43.2073 19.2602 42.3036 24.7276 38.3197 27.002ZM29.6683 34.356C30.1176 34.4387 30.5627 34.4773 31 34.4755V42.472L24 37.922L17 42.472V34.4755C17.4373 34.4773 17.8824 34.4387 18.3317 34.356C21.238 37.8813 26.762 37.8813 29.6683 34.356ZM27.8097 31.941C26.0967 34.7949 21.9033 34.7949 20.1903 31.941L19.583 30.9292L18.4664 31.3112C15.3153 32.3891 12.137 29.6297 12.6546 26.3467L12.8377 25.1853L11.7417 24.7593C8.64041 23.5539 7.93075 19.3867 10.4317 17.1964L11.3152 16.4227L10.7482 15.3942C9.14396 12.4843 11.1998 8.79846 14.5286 8.72866L15.7064 8.70397L15.9308 7.54758C16.5642 4.28244 20.4931 2.80336 23.0819 4.89789L24 5.64067L24.9181 4.89789C27.5069 2.80336 31.4357 4.28244 32.0692 7.54758L32.2936 8.70397L33.4714 8.72866C36.8002 8.79846 38.856 12.4843 37.2518 15.3942L36.6848 16.4227L37.5683 17.1965C40.0692 19.3867 39.3596 23.5539 36.2583 24.7593L35.1623 25.1853L35.3454 26.3467C35.863 29.6297 32.6847 32.3891 29.5335 31.3112L28.4169 30.9292L27.8097 31.941Z" fill="#142C73"></path>
</g>
<defs>
<clipPath id="clip0_1894_6244">
<rect width="48" height="48" fill="white"></rect>
</clipPath>
</defs>
</svg>