<svg class="theme-icon" width="48" height="48" viewBox="0 0 48 48" fill="none" xmlns="http://www.w3.org/2000/svg">
<path d="M12.001 7.50024H15V10.5002H6.5V2.00024L9.5 2.00024L9.5 5.63244C12.3981 3.34371 15.807 1.76376 19.4543 1.03828C24.0011 0.133868 28.714 0.598046 32.997 2.37212C37.28 4.1462 40.9407 7.15049 43.5163 11.0051C46.0918 14.8597 47.4665 19.3915 47.4665 24.0273C47.4665 28.6632 46.0918 33.195 43.5163 37.0496C40.9407 40.9042 37.28 43.9085 32.997 45.6826C28.714 47.4567 24.0011 47.9208 19.4543 47.0164C14.9075 46.112 10.7309 43.8796 7.45288 40.6015L9.5742 38.4802C12.4327 41.3387 16.0747 43.2854 20.0395 44.0741C24.0044 44.8627 28.1141 44.458 31.8489 42.9109C35.5837 41.3639 38.7759 38.7441 41.0219 35.3829C43.2678 32.0216 44.4665 28.0699 44.4665 24.0273C44.4665 19.9848 43.2678 16.0331 41.0219 12.6718C38.7759 9.31055 35.5837 6.69077 31.8489 5.14376C28.1141 3.59675 24.0044 3.19198 20.0395 3.98064C17.1245 4.56048 14.3839 5.7663 12.001 7.50024Z" fill="#142C73"></path>
<path fill-rule="evenodd" clip-rule="evenodd" d="M24 36C30.6274 36 36 30.6274 36 24C36 17.3726 30.6274 12 24 12C17.3726 12 12 17.3726 12 24C12 30.6274 17.3726 36 24 36ZM24 39C32.2843 39 39 32.2843 39 24C39 15.7157 32.2843 9 24 9C15.7157 9 9 15.7157 9 24C9 32.2843 15.7157 39 24 39Z" fill="#142C73"></path>
<path d="M25.5 17.0731C25.9313 17.1404 26.3627 17.254 26.794 17.414C27.55 17.678 28.198 18.062 28.738 18.566L26.776 20.636C26.524 20.312 26.182 20.048 25.75 19.844C25.33 19.64 24.916 19.538 24.508 19.538C24.028 19.538 23.608 19.64 23.248 19.844C22.9 20.036 22.726 20.36 22.726 20.816C22.726 21.02 22.768 21.2 22.852 21.356C22.936 21.5 23.074 21.632 23.266 21.752C23.47 21.86 23.668 21.956 23.86 22.04C24.052 22.112 24.328 22.202 24.688 22.31C25.156 22.466 25.522 22.592 25.786 22.688C26.05 22.784 26.386 22.946 26.794 23.174C27.214 23.39 27.538 23.618 27.766 23.858C27.994 24.098 28.198 24.422 28.378 24.83C28.558 25.226 28.648 25.664 28.648 26.144C28.648 27.524 28.174 28.58 27.226 29.312C26.715 29.705 26.1397 29.9908 25.5 30.1693V32H22.5V30.2862C22.0251 30.2055 21.5604 30.0788 21.106 29.906C20.254 29.582 19.552 29.132 19 28.556L21.016 26.504C21.328 26.9 21.736 27.224 22.24 27.476C22.756 27.728 23.266 27.854 23.77 27.854C24.286 27.854 24.706 27.746 25.03 27.53C25.366 27.302 25.534 26.948 25.534 26.468C25.534 26.276 25.486 26.108 25.39 25.964C25.306 25.808 25.21 25.682 25.102 25.586C24.994 25.478 24.802 25.364 24.526 25.244C24.25 25.124 24.016 25.034 23.824 24.974C23.632 24.902 23.32 24.794 22.888 24.65C22.42 24.494 22.018 24.332 21.682 24.164C21.346 23.996 21.01 23.774 20.674 23.498C20.338 23.222 20.08 22.874 19.9 22.454C19.72 22.034 19.63 21.548 19.63 20.996C19.63 20.324 19.774 19.724 20.062 19.196C20.35 18.656 20.734 18.236 21.214 17.936C21.6136 17.6763 22.0422 17.4706 22.5 17.319V15H25.5V17.0731Z" fill="#142C73"></path>
</svg>