<svg class="theme-icon" width="20" height="20" viewBox="0 0 20 20" fill="none" xmlns="http://www.w3.org/2000/svg">
<path fill-rule="evenodd" clip-rule="evenodd" d="M9.9975 0H10.0025C15.5163 0 20 4.48625 20 10C20 15.5137 15.5163 20 10.0025 20C7.96875 20 6.0825 19.395 4.50125 18.3475L0.6575 19.5763L1.90375 15.8612C0.705 14.215 0 12.1875 0 10C0 4.485 4.48375 0 9.9975 0ZM13.8587 15.5325C14.6225 15.3675 15.58 14.8025 15.8212 14.1212C16.0625 13.4387 16.0625 12.8575 15.9925 12.7337C15.936 12.6356 15.8023 12.5712 15.6028 12.4751C15.5508 12.4501 15.4944 12.423 15.4337 12.3925C15.14 12.2462 13.7112 11.54 13.4412 11.4462C13.1762 11.3462 12.9237 11.3812 12.7237 11.6637C12.6857 11.717 12.6477 11.7704 12.61 11.8235C12.3687 12.1628 12.136 12.4901 11.9425 12.6987C11.7662 12.8862 11.4787 12.91 11.2375 12.81C11.2112 12.799 11.181 12.7869 11.1473 12.7732C10.7653 12.6189 9.91805 12.2768 8.89249 11.3637C8.02749 10.5937 7.43999 9.635 7.26999 9.3475C7.10308 9.05909 7.24705 8.88997 7.38011 8.73367C7.38257 8.73077 7.38503 8.72788 7.38749 8.725C7.47328 8.61885 7.55653 8.53047 7.64019 8.44164C7.70038 8.37774 7.76078 8.31362 7.82249 8.2425C7.83165 8.23193 7.84057 8.22168 7.84925 8.2117C7.98028 8.06104 8.05831 7.97132 8.14624 7.78375C8.24624 7.59 8.17499 7.39 8.10374 7.2425C8.05472 7.1392 7.7519 6.40448 7.49194 5.77375C7.38069 5.50382 7.27729 5.25294 7.20499 5.07875C7.01124 4.615 6.86374 4.5975 6.56999 4.585C6.56099 4.58455 6.55189 4.58409 6.54271 4.58362C6.44986 4.57892 6.3476 4.57375 6.23499 4.57375C5.85249 4.57375 5.45374 4.68625 5.21249 4.9325C5.20406 4.94111 5.19527 4.95004 5.18615 4.95932C4.87751 5.27321 4.18999 5.97243 4.18999 7.36625C4.18999 8.76276 5.18087 10.1143 5.36421 10.3644C5.36926 10.3712 5.3737 10.3773 5.37749 10.3825C5.38852 10.397 5.40931 10.4271 5.43957 10.4709C5.81392 11.013 7.63728 13.6536 10.3562 14.78C12.6537 15.7325 13.3362 15.6437 13.8587 15.5325Z" fill="#142C73"></path>
</svg>