<svg class="theme-icon" width="48" height="48" viewBox="0 0 48 48" fill="none" xmlns="http://www.w3.org/2000/svg">
<path fill-rule="evenodd" clip-rule="evenodd" d="M3.53125 3.59961H10.3172L11.998 11.5L12.0364 11.5432C12.0476 11.6234 12.0613 11.7038 12.0775 11.7845L15.4939 28.7845C15.8697 30.6542 17.5193 32 19.4352 32H35.1933C36.9957 32 38.5778 30.8059 39.0638 29.0785L42.8468 12.0785C43.5644 9.5279 41.6378 7 38.9763 7H16.0188C15.3549 7 14.7345 7.15818 14.1892 7.43612L12.7453 0.599609H3.53125V3.59961ZM39.3458 14L39.9365 11.3459L39.9589 11.266C40.1328 10.648 39.6693 10 38.9763 10H16.0188C15.3587 10 14.898 10.5929 15.0187 11.1934L15.5827 14H39.3458ZM16.1856 17H38.6782L36.1595 28.3186C36.023 28.7167 35.6408 29 35.1933 29H19.4352C18.9384 29 18.5274 28.6525 18.4351 28.1934L16.1856 17Z" fill="#142C73"></path>
<path fill-rule="evenodd" clip-rule="evenodd" d="M16.998 48C20.3118 48 22.998 45.3137 22.998 42C22.998 38.6863 20.3118 36 16.998 36C13.6843 36 10.998 38.6863 10.998 42C10.998 45.3137 13.6843 48 16.998 48ZM16.998 45C18.6549 45 19.998 43.6569 19.998 42C19.998 40.3431 18.6549 39 16.998 39C15.3412 39 13.998 40.3431 13.998 42C13.998 43.6569 15.3412 45 16.998 45Z" fill="#142C73"></path>
<path fill-rule="evenodd" clip-rule="evenodd" d="M36.998 48C40.3118 48 42.998 45.3137 42.998 42C42.998 38.6863 40.3118 36 36.998 36C33.6843 36 30.998 38.6863 30.998 42C30.998 45.3137 33.6843 48 36.998 48ZM36.998 45C38.6549 45 39.998 43.6569 39.998 42C39.998 40.3431 38.6549 39 36.998 39C35.3412 39 33.998 40.3431 33.998 42C33.998 43.6569 35.3412 45 36.998 45Z" fill="#142C73"></path>
</svg>