<svg class="theme-icon" width="48" height="48" viewBox="0 0 48 48" fill="none" xmlns="http://www.w3.org/2000/svg">
<g clip-path="url(#clip0_1993_6357)">
<path fill-rule="evenodd" clip-rule="evenodd" d="M8.57205 32.663L8.6297 32.6057C2.07158 24.7945 2.48071 13.1569 9.8577 5.82338C17.6682 -1.94113 30.3315 -1.94113 38.142 5.82338C45.9525 13.5879 45.9525 26.1766 38.142 33.9411L23.9998 48L8.57205 32.663ZM23.9998 43.7698L11.4225 31.2666L10.9273 30.6767C5.36316 24.0497 5.71057 14.1763 11.9727 7.95095C18.6131 1.34968 29.3866 1.34968 36.0269 7.95095C42.6575 14.5425 42.6575 25.222 36.0269 31.8135L23.9998 43.7698Z" fill="#142C73"></path>
<path fill-rule="evenodd" clip-rule="evenodd" d="M23.9998 23C25.6567 23 26.9998 21.6569 26.9998 20C26.9998 18.3431 25.6567 17 23.9998 17C22.343 17 20.9998 18.3431 20.9998 20C20.9998 21.6569 22.343 23 23.9998 23ZM23.9998 26C27.3135 26 29.9998 23.3137 29.9998 20C29.9998 16.6863 27.3135 14 23.9998 14C20.6861 14 17.9998 16.6863 17.9998 20C17.9998 23.3137 20.6861 26 23.9998 26Z" fill="#142C73"></path>
</g>
<defs>
<clipPath id="clip0_1993_6357">
<rect width="48" height="48" fill="white"></rect>
</clipPath>
</defs>
</svg>