<svg class="theme-icon" width="48" height="48" viewBox="0 0 48 48" fill="none" xmlns="http://www.w3.org/2000/svg">
<path d="M8 13H26V16H8V13Z" fill="#142C73"></path>
<path d="M26 19H15V22H26V19Z" fill="#142C73"></path>
<path fill-rule="evenodd" clip-rule="evenodd" d="M0 30C0 34.483 2.94988 38.2769 7.01444 39.5467C7.00486 39.6966 7 39.8477 7 40C7 43.866 10.134 47 14 47C17.866 47 21 43.866 21 40H29C29 43.866 32.134 47 36 47C39.866 47 43 43.866 43 40H48V28.9455L40.1071 8H34V1H0V30ZM42.3264 37H45V29.4919L44.8146 29H34V33.2899C34.6337 33.1013 35.305 33 36 33C38.7924 33 41.2029 34.6351 42.3264 37ZM31 35.101V4H3V30C3 33.1143 5.03372 35.7535 7.84552 36.6622C9.03109 34.4808 11.3426 33 14 33C16.7924 33 19.2029 34.6351 20.3264 37H29.6736C30.0091 36.2939 30.4592 35.6529 31 35.101ZM43.6841 26H34V11H38.0317L43.6841 26ZM14 44C16.2091 44 18 42.2091 18 40C18 37.7909 16.2091 36 14 36C11.7909 36 10 37.7909 10 40C10 42.2091 11.7909 44 14 44ZM40 40C40 42.2091 38.2091 44 36 44C33.7909 44 32 42.2091 32 40C32 37.7909 33.7909 36 36 36C38.2091 36 40 37.7909 40 40Z" fill="#142C73"></path>
</svg>