<svg class="theme-icon" width="48" height="48" viewBox="0 0 48 48" fill="none" xmlns="http://www.w3.org/2000/svg">
<g clip-path="url(#clip0_5107_6408)">
<path d="M1.94107 14.2728C3.22257 11.179 5.10088 8.36789 7.46878 6L9.5901 8.12132C7.50078 10.2106 5.84344 12.691 4.71271 15.4208C3.58198 18.1507 3 21.0765 3 24.0312C3 26.986 3.58198 29.9118 4.71271 32.6416C5.84344 35.3714 7.50078 37.8518 9.5901 39.9411L7.46878 42.0624C5.10088 39.6946 3.22257 36.8835 1.94107 33.7896C0.659579 30.6958 0 27.3799 0 24.0312C0 20.6825 0.659577 17.3666 1.94107 14.2728Z" fill="#142C73"></path>
<path d="M8.40823 16.9516C9.33794 14.7071 10.7006 12.6676 12.4185 10.9497L14.5398 13.0711C13.1005 14.5104 11.9588 16.2191 11.1799 18.0996C10.4009 19.9802 10 21.9957 10 24.0312C10 26.0667 10.4009 28.0823 11.1799 29.9628C11.9588 31.8434 13.1005 33.5521 14.5398 34.9914L12.4185 37.1127C10.7006 35.3948 9.33794 33.3554 8.40823 31.1109C7.47852 28.8663 7 26.4607 7 24.0312C7 21.6018 7.47852 19.1961 8.40823 16.9516Z" fill="#142C73"></path>
<path d="M45.5996 14.2728C44.3181 11.179 42.4397 8.36789 40.0718 6L37.9505 8.12132C40.0398 10.2106 41.6972 12.691 42.8279 15.4208C43.9586 18.1507 44.5406 21.0765 44.5406 24.0312C44.5406 26.986 43.9586 29.9118 42.8279 32.6416C41.6972 35.3714 40.0398 37.8518 37.9505 39.9411L40.0718 42.0624C42.4397 39.6946 44.3181 36.8835 45.5996 33.7896C46.8811 30.6958 47.5406 27.3799 47.5406 24.0312C47.5406 20.6825 46.8811 17.3666 45.5996 14.2728Z" fill="#142C73"></path>
<path d="M39.1324 16.9516C38.2027 14.7071 36.84 12.6676 35.1221 10.9497L33.0008 13.0711C34.4401 14.5104 35.5818 16.2191 36.3608 18.0996C37.1397 19.9802 37.5406 21.9957 37.5406 24.0312C37.5406 26.0667 37.1397 28.0823 36.3608 29.9628C35.5818 31.8434 34.4401 33.5521 33.0008 34.9914L35.1221 37.1127C36.84 35.3948 38.2027 33.3554 39.1324 31.1109C40.0621 28.8663 40.5406 26.4607 40.5406 24.0312C40.5406 21.6018 40.0621 19.1961 39.1324 16.9516Z" fill="#142C73"></path>
<path d="M29.828 29.9839C31.4176 29.9839 32.8086 29.6568 34.0008 29.0027V22.9705H29.5376V25.1903H31.6011V27.2654C31.1527 27.4692 30.6075 27.571 29.9656 27.571C28.9262 27.571 28.1161 27.244 27.5353 26.5898C26.9545 25.9249 26.6641 25.0563 26.6641 23.9839C26.6641 22.9651 26.9647 22.118 27.5659 21.4424C28.1671 20.7668 28.9262 20.429 29.8433 20.429C30.8827 20.429 31.6928 20.7828 32.2736 21.4906L33.9244 19.5121C33.4658 19.0509 32.8646 18.6863 32.1207 18.4182C31.3769 18.1394 30.5872 18 29.7516 18C28.0703 18 26.6691 18.5523 25.5483 19.6568C24.4376 20.7507 23.8822 22.193 23.8822 23.9839C23.8822 25.7641 24.4376 27.2118 25.5483 28.3271C26.659 29.4316 28.0855 29.9839 29.828 29.9839Z" fill="#142C73"></path>
<path d="M21.0624 28.9544C21.8776 28.2466 22.2852 27.2386 22.2852 25.9303C22.2852 24.7721 21.9183 23.882 21.1847 23.2601C20.451 22.6273 19.5135 22.311 18.3723 22.311C17.9443 22.311 17.5825 22.3485 17.287 22.4236L17.3787 20.622H21.7349V18.3056H15.1013L14.8415 24.8204C15.7178 24.4879 16.5992 24.3217 17.4857 24.3217C18.1073 24.3217 18.6321 24.4558 19.0601 24.7239C19.488 24.992 19.702 25.437 19.702 26.059C19.702 26.5844 19.5441 26.992 19.2282 27.2815C18.9225 27.571 18.5404 27.7158 18.0818 27.7158C17.6742 27.7158 17.3074 27.5925 16.9813 27.3458C16.6654 27.0885 16.4515 26.756 16.3394 26.3485L14.0008 27.1046C14.2555 27.9946 14.7548 28.7024 15.4987 29.2279C16.2426 29.7426 17.1138 30 18.1124 30C19.2639 30 20.2472 29.6515 21.0624 28.9544Z" fill="#142C73"></path>
</g>
<defs>
<clipPath id="clip0_5107_6408">
<rect width="48" height="48" fill="white"></rect>
</clipPath>
</defs>
</svg>