<svg class="theme-icon" width="48" height="48" viewBox="0 0 48 48" fill="none" xmlns="http://www.w3.org/2000/svg">
<path fill-rule="evenodd" clip-rule="evenodd" d="M24.5454 18.9562L17.5231 22.1294C17.9229 23.7837 18.9388 25.6736 20.6326 27.3674C22.3264 29.0612 24.2163 30.0771 25.8706 30.4769L29.0438 23.4546L31.0884 24.2768C34.0252 25.4578 40.273 27.9872 45.5328 30.1189L47 30.7135L46.9675 32.2963C46.8856 36.282 45.5857 40.0281 42.7919 42.8219C38.9026 46.7112 33.2251 47.6857 27.5437 46.565C21.8448 45.4407 15.8625 42.1826 10.84 37.16C5.81744 32.1375 2.55928 26.1552 1.43505 20.4563C0.314294 14.7749 1.28884 9.09737 5.1781 5.20811C7.97193 2.41428 11.718 1.11441 15.7037 1.03252L17.2865 1L17.8811 2.46722C20.0128 7.72704 22.5422 13.9748 23.7232 16.9116L24.5454 18.9562ZM15.2851 4.04878C14.4778 4.08912 13.6967 4.18926 12.947 4.34966L18.4834 18.4034L20.6887 17.4069C19.4667 14.3731 17.2343 8.85872 15.2851 4.04878ZM7.29942 7.32943C8.12261 6.50624 9.06567 5.83865 10.1068 5.32482L15.7462 19.6403L14.0234 20.4187L14.607 22.834C15.1492 25.0776 16.4677 27.4452 18.5113 29.4887C20.5548 31.5323 22.9224 32.8508 25.166 33.393L27.5813 33.9766L28.4033 32.1574C28.7474 32.2699 29.196 32.4266 29.7332 32.6212C30.9314 33.0554 32.5187 33.6598 34.2569 34.3356C37.0635 35.4266 40.2412 36.6949 42.7625 37.7123C42.2378 38.8253 41.5412 39.83 40.6706 40.7006C37.708 43.6631 33.1738 44.6178 28.1243 43.6217C23.0847 42.6275 17.6212 39.6986 12.9613 35.0387C8.30145 30.3788 5.37249 24.9153 4.37833 19.8757C3.38221 14.8262 4.33686 10.292 7.29942 7.32943ZM43.6917 34.8522C43.8281 34.1642 43.9145 33.4504 43.9512 32.7149C39.1413 30.7657 33.6269 28.5333 30.5931 27.3113L29.6451 29.4092C29.9708 29.5197 30.3447 29.6519 30.7552 29.8007C31.9862 30.2467 33.5989 30.861 35.3439 31.5394C38.0939 32.6085 41.194 33.8451 43.6917 34.8522Z" fill="#142C73"></path>
</svg>