<svg class="theme-icon" width="48" height="48" viewBox="0 0 48 48" fill="none" xmlns="http://www.w3.org/2000/svg">
<path d="M33 30H26V33H33V30Z" fill="#142C73"></path>
<path d="M20 30H22V33H20V35H17V33H15V30H17V28H20V30Z" fill="#142C73"></path>
<path fill-rule="evenodd" clip-rule="evenodd" d="M29.9998 7C35.1851 7 39.6614 10.0359 41.7481 14.4273C45.3746 15.5889 48 18.9879 48 23V32C48 36.9706 43.9706 41 39 41H9C4.02944 41 0 36.9706 0 32V23C0 18.9881 2.62509 15.5892 6.25132 14.4275C8.33798 10.036 12.8143 7 17.9998 7H29.9998ZM17.9998 10H29.9998C33.2714 10 36.1761 11.5711 38.0005 14H9.99903C11.8234 11.5711 14.7281 10 17.9998 10ZM9 17H39C39.2608 17 39.5177 17.0166 39.7698 17.0489C38.0173 19.7748 37.0007 23.0187 37.0007 26.5001C37.0007 30.7386 38.5075 34.6252 41.0147 37.6534C40.385 37.8778 39.7068 38 39 38H9C8.29362 38 7.61575 37.8779 6.98633 37.6537C9.49372 34.6255 11.0007 30.7388 11.0007 26.5001C11.0007 23.0186 9.98407 19.7746 8.23151 17.0488C8.48313 17.0166 8.73963 17 9 17ZM5.39432 18.2038C3.94022 19.2987 3 21.0396 3 23V32C3 33.5169 3.56289 34.9023 4.49119 35.9587C6.67839 33.4196 8.00068 30.1143 8.00068 26.5001C8.00068 23.4147 7.03705 20.5545 5.39432 18.2038ZM43.5095 35.9579C44.4374 34.9016 45 33.5165 45 32V23C45 21.04 44.0602 19.2995 42.6066 18.2045C40.9641 20.555 40.0007 23.415 40.0007 26.5001C40.0007 30.1139 41.3227 33.4189 43.5095 35.9579Z" fill="#142C73"></path>
</svg>