<svg class="theme-icon" width="48" height="48" viewBox="0 0 48 48" fill="none" xmlns="http://www.w3.org/2000/svg">
<path fill-rule="evenodd" clip-rule="evenodd" d="M28 21C28 23.2091 26.2091 25 24 25C21.7909 25 20 23.2091 20 21C20 18.7909 21.7909 17 24 17C26.2091 17 28 18.7909 28 21ZM25 21C25 21.5523 24.5523 22 24 22C23.4477 22 23 21.5523 23 21C23 20.4477 23.4477 20 24 20C24.5523 20 25 20.4477 25 21Z" fill="#142C73"></path>
<path fill-rule="evenodd" clip-rule="evenodd" d="M13 2H0V5H5V10.207C2.6915 10.86 1 12.9824 1 15.5V21.5C1 24.5376 3.46243 27 6.5 27C9.01772 27 11.1403 25.3083 11.7931 22.9995H13.2126C13.7067 25.2734 15.0285 27.189 16.8167 28.5751L8.80859 30.5136C5.34876 31.3512 3.29554 34.5639 4.2226 37.6896L6.68745 46H10.0446L7.35489 36.9313C6.89136 35.3685 7.91797 33.7621 9.64789 33.3434L20.0889 30.816C20.5859 30.6956 21.087 30.6865 21.5597 30.7716L21.5721 30.7491C22.3637 30.914 23.178 31 24.0001 31C24.8222 31 25.6364 30.914 26.4279 30.7492L26.4403 30.7716C26.913 30.6865 27.4141 30.6956 27.9111 30.816L38.3521 33.3434C40.082 33.7621 41.1086 35.3685 40.6451 36.9313L37.9554 46H41.3125L43.7774 37.6896C44.7045 34.5639 42.6512 31.3512 39.1914 30.5136L31.1835 28.5752C32.9717 27.189 34.2935 25.2734 34.7877 22.9995H36.2069C36.8597 25.3083 38.9823 27 41.5 27C44.5376 27 47 24.5376 47 21.5V15.5C47 12.9824 45.3085 10.86 43 10.207V5H48V2H35V5H40V10.207C38.1685 10.7251 36.7253 12.1681 36.2072 13.9995H33.9577C32.8411 13.9995 31.7955 13.4774 29.9846 12.5731C29.7572 12.4595 29.5178 12.3399 29.2646 12.2146C27.6873 11.4338 25.8895 11 24.0001 11C22.1108 11 20.3129 11.4338 18.7357 12.2146C18.4825 12.3399 18.243 12.4595 18.0156 12.5731C16.2047 13.4774 15.1592 13.9995 14.0425 13.9995H11.7928C11.2747 12.1681 9.83152 10.7251 8 10.207V5H13V2ZM36 16.9995V19.9995H32.9239C32.3973 19.9995 32.0001 20.4734 32.0001 21C32.0001 24.866 28.4184 28 24.0001 28C19.5819 28 16.0001 24.866 16.0001 21C16.0001 20.4734 15.603 19.9995 15.0764 19.9995H12V16.9995H14.0425C15.9207 16.9995 17.658 16.12 19.3516 15.2625C19.5907 15.1414 19.829 15.0208 20.0666 14.9032C21.2281 14.3282 22.5703 14 24.0001 14C25.4299 14 26.7721 14.3282 27.9337 14.9032C28.171 15.0207 28.4098 15.1416 28.6486 15.2625C30.3422 16.12 32.0795 16.9995 33.9577 16.9995H36ZM4 15.5C4 14.1193 5.11929 13 6.5 13C7.88071 13 9 14.1193 9 15.5V21.5C9 22.8807 7.88071 24 6.5 24C5.11929 24 4 22.8807 4 21.5V15.5ZM44 21.5V15.5C44 14.1193 42.8807 13 41.5 13C40.1193 13 39 14.1193 39 15.5V21.5C39 22.8807 40.1193 24 41.5 24C42.8807 24 44 22.8807 44 21.5Z" fill="#142C73"></path>
</svg>