<svg class="theme-icon" width="48" height="48" viewBox="0 0 48 48" fill="none" xmlns="http://www.w3.org/2000/svg">
<path fill-rule="evenodd" clip-rule="evenodd" d="M33 29V14C33 9.02944 28.9706 5 24 5C19.0294 5 15 9.02944 15 14V29C15 33.9706 19.0294 38 24 38C28.9706 38 33 33.9706 33 29ZM24 2C17.3726 2 12 7.37258 12 14V29C12 35.6274 17.3726 41 24 41C30.6274 41 36 35.6274 36 29V14C36 7.37258 30.6274 2 24 2Z" fill="#142C73"></path>
<path d="M9 45H39V48H9V45Z" fill="#142C73"></path>
<path fill-rule="evenodd" clip-rule="evenodd" d="M24 17C25.6569 17 27 15.6569 27 14C27 12.3431 25.6569 11 24 11C22.3431 11 21 12.3431 21 14C21 15.6569 22.3431 17 24 17ZM24 20C27.3137 20 30 17.3137 30 14C30 10.6863 27.3137 8 24 8C20.6863 8 18 10.6863 18 14C18 17.3137 20.6863 20 24 20Z" fill="#142C73"></path>
</svg>